<svg width="30" height="30" viewBox="0 0 30 30" fill="none" xmlns="http://www.w3.org/2000/svg">
<g clip-path="url(#clip0_443_251)">
<path d="M21.9269 15.635C20.6125 17.7933 19.7776 20.2591 19.5541 22.8841C19.5319 23.1436 19.3166 23.3438 19.0561 23.3438H10.9438C10.6837 23.3438 10.4681 23.1444 10.4461 22.8853C10.2324 20.3769 9.44938 17.8949 8.07312 15.635C8.02031 15.5481 7.99519 15.4473 8.00111 15.3458C8.00703 15.2443 8.0437 15.147 8.10625 15.0669C11.0647 11.2836 12.6888 9.18225 13.6074 8.01556C13.9011 7.64269 14.5 7.85062 14.5 8.32525V15.1364C14.5 15.34 14.3758 15.5214 14.1877 15.5994C13.4179 15.919 12.875 16.6784 12.875 17.5625C12.875 18.7846 13.9119 19.769 15.1522 19.6822C16.1868 19.6098 17.0297 18.78 17.1172 17.7466C17.1986 16.785 16.6351 15.9411 15.8123 15.5995C15.6242 15.5214 15.4999 15.3401 15.4999 15.1364V8.345C15.4999 7.87025 16.0995 7.6625 16.3929 8.03581C18.2591 10.4102 21.8793 15.0484 21.8937 15.0669C21.9563 15.147 21.993 15.2443 21.9989 15.3458C22.0048 15.4473 21.9797 15.5481 21.9269 15.635ZM19.5625 24.3125H10.4375C9.33438 24.3125 8.4375 25.21 8.4375 26.3125V28C8.4375 29.1025 9.33438 30 10.4375 30H19.5625C20.6656 30 21.5625 29.1025 21.5625 28V26.3125C21.5625 25.21 20.6656 24.3125 19.5625 24.3125ZM28.5 15.0625H28.3025C28.1064 9.82987 24.8678 5.23081 20.0669 3.25H25.3988C25.6044 3.83188 26.1606 4.25 26.8125 4.25C27.6394 4.25 28.3125 3.57687 28.3125 2.75C28.3125 1.92313 27.6394 1.25 26.8125 1.25C26.1606 1.25 25.6044 1.66812 25.3988 2.25H17.75V1.5C17.75 0.673125 17.0769 0 16.25 0H13.75C12.9231 0 12.25 0.673125 12.25 1.5V2.25H4.60125C4.39563 1.66812 3.83938 1.25 3.1875 1.25C2.36063 1.25 1.6875 1.92313 1.6875 2.75C1.6875 3.57687 2.36063 4.25 3.1875 4.25C3.83938 4.25 4.39563 3.83188 4.60125 3.25H9.93312C5.13206 5.23088 1.89356 9.83006 1.6975 15.0625H1.5C0.673125 15.0625 0 15.7356 0 16.5625V17.9375C0 18.7644 0.673125 19.4375 1.5 19.4375H2.875C3.70187 19.4375 4.375 18.7644 4.375 17.9375V16.5625C4.375 15.7356 3.70187 15.0625 2.875 15.0625H2.6975C2.91937 9.49687 6.83563 4.78813 12.25 3.55813V4C12.25 4.82687 12.9231 5.5 13.75 5.5H16.25C17.0769 5.5 17.75 4.82687 17.75 4V3.55813C23.1644 4.78813 27.0806 9.49687 27.3025 15.0625H27.125C26.2981 15.0625 25.625 15.7356 25.625 16.5625V17.9375C25.625 18.7644 26.2981 19.4375 27.125 19.4375H28.5C29.3269 19.4375 30 18.7644 30 17.9375V16.5625C30 15.7356 29.3269 15.0625 28.5 15.0625Z" fill="white"/>
</g>
<defs>
<clipPath id="clip0_443_251">
<rect width="30" height="30" fill="white"/>
</clipPath>
</defs>
</svg>
