<svg width="29" height="30" viewBox="0 0 29 30" fill="none" xmlns="http://www.w3.org/2000/svg">
<g filter="url(#filter0_d_1_296)">
<path d="M22.75 20.8833L16.2166 14.35C15.6333 14.8166 14.9625 15.1861 14.2041 15.4583C13.4458 15.7305 12.6388 15.8666 11.7833 15.8666C9.66384 15.8666 7.87028 15.1324 6.40262 13.664C4.93495 12.1955 4.20073 10.402 4.19995 8.28328C4.19995 6.16384 4.93417 4.37028 6.40262 2.90262C7.87106 1.43495 9.66462 0.700729 11.7833 0.699951C13.9027 0.699951 15.6963 1.43417 17.164 2.90262C18.6316 4.37106 19.3658 6.16462 19.3666 8.28328C19.3666 9.13884 19.2305 9.94578 18.9583 10.7041C18.6861 11.4625 18.3166 12.1333 17.85 12.7166L24.4125 19.2791C24.6263 19.493 24.7333 19.7555 24.7333 20.0666C24.7333 20.3777 24.6166 20.65 24.3833 20.8833C24.1694 21.0972 23.8972 21.2041 23.5666 21.2041C23.2361 21.2041 22.9638 21.0972 22.75 20.8833ZM11.7833 13.5333C13.2416 13.5333 14.4814 13.0227 15.5026 12.0015C16.5238 10.9802 17.0341 9.74084 17.0333 8.28328C17.0333 6.82495 16.5227 5.58517 15.5015 4.56395C14.4802 3.54273 13.2408 3.03251 11.7833 3.03328C10.325 3.03328 9.08517 3.5439 8.06395 4.56512C7.04273 5.58634 6.53251 6.82573 6.53328 8.28328C6.53328 9.74162 7.0439 10.9814 8.06512 12.0026C9.08634 13.0238 10.3257 13.5341 11.7833 13.5333Z" fill="white"/>
</g>
<defs>
<filter id="filter0_d_1_296" x="0.199951" y="0.699951" width="28.5334" height="28.5042" filterUnits="userSpaceOnUse" color-interpolation-filters="sRGB">
<feFlood flood-opacity="0" result="BackgroundImageFix"/>
<feColorMatrix in="SourceAlpha" type="matrix" values="0 0 0 0 0 0 0 0 0 0 0 0 0 0 0 0 0 0 127 0" result="hardAlpha"/>
<feOffset dy="4"/>
<feGaussianBlur stdDeviation="2"/>
<feComposite in2="hardAlpha" operator="out"/>
<feColorMatrix type="matrix" values="0 0 0 0 0 0 0 0 0 0 0 0 0 0 0 0 0 0 0.25 0"/>
<feBlend mode="normal" in2="BackgroundImageFix" result="effect1_dropShadow_1_296"/>
<feBlend mode="normal" in="SourceGraphic" in2="effect1_dropShadow_1_296" result="shape"/>
</filter>
</defs>
</svg>
